SplineFontDB: 3.0
FontName: Jannon
FullName: Jannon
FamilyName: Jannon
Weight: Regular
Copyright: Created by trashman with FontForge 2.0 (http://fontforge.sf.net)
UComments: "2010-9-5: Created." 
Version: 001.000
ItalicAngle: 0
UnderlinePosition: -100
UnderlineWidth: 50
Ascent: 700
Descent: 300
LayerCount: 3
Layer: 0 0 "Back"  1
Layer: 1 0 "Fore"  0
Layer: 2 0 "backup"  0
NeedsXUIDChange: 1
XUID: [1021 658 797806517 9253483]
FSType: 0
OS2Version: 0
OS2_WeightWidthSlopeOnly: 0
OS2_UseTypoMetrics: 1
CreationTime: 1283672823
ModificationTime: 1284255484
OS2TypoAscent: 0
OS2TypoAOffset: 1
OS2TypoDescent: 0
OS2TypoDOffset: 1
OS2TypoLinegap: 90
OS2WinAscent: 0
OS2WinAOffset: 1
OS2WinDescent: 0
OS2WinDOffset: 1
HheadAscent: 0
HheadAOffset: 1
HheadDescent: 0
HheadDOffset: 1
MarkAttachClasses: 1
DEI: 91125
Encoding: UnicodeBmp
UnicodeInterp: none
NameList: Adobe Glyph List
DisplaySize: -48
AntiAlias: 1
FitToEm: 1
WinInfo: 64 16 4
BeginPrivate: 8
BlueValues 15 [-25 0 390 426]
StdHW 4 [26]
StdVW 4 [65]
StemSnapH 22 [26 30 36 42 47 55 62]
StemSnapV 38 [24 31 37 52 57 61 65 69 73 80 93 150]
BlueFuzz 1 0
BlueScale 6 0.0275
BlueShift 1 7
EndPrivate
BeginChars: 65536 55

StartChar: a
Encoding: 97 97 0
Width: 426
VWidth: 0
Flags: W
HStem: -15 53<73.5 171.596> -8 50<284 374.828> 372 36<162.339 270.5>
VStem: 35 68<18 108.608> 249 65<73.0061 192.964> 255 69<219.102 361.307>
LayerCount: 3
Back
SplineSet
196 372 m 4xb4
 114 372 128 265 72 265 c 4
 54 265 48 276 48 289 c 4
 48 348 173 408 245 408 c 4
 296 408 324 384 324 326 c 4xb4
 324 257 314 166 314 98 c 4
 314 64 318 42 343 42 c 4
 384 42 391 86 406 86 c 4
 411 86 415 81 415 70 c 4
 415 52 376 -8 312 -8 c 4x78
 278 -8 258 19 244 58 c 4
 241 66 240 62 236 58 c 4
 204 24 159 -15 88 -15 c 4
 59 -15 35 -4 35 40 c 4
 35 141 154 196 234 217 c 4
 247 220 252 224 253 243 c 4
 254 262 255 280 255 299 c 4
 255 347 238 372 196 372 c 4xb4
103 81 m 4
 103 44 122 38 144 38 c 4
 188 38 239 73 244 98 c 4
 246 109 249 129 249 163 c 4xb8
 249 185 246 196 238 196 c 4
 207 196 103 145 103 81 c 4
EndSplineSet
Fore
SplineSet
196 372 m 0xb4
 114 372 128 265 72 265 c 0
 54 265 48 276 48 289 c 0
 48 348 173 408 245 408 c 0
 296 408 324 384 324 326 c 0xb4
 324 257 314 166 314 98 c 0
 314 64 318 42 343 42 c 0
 384 42 391 86 406 86 c 0
 411 86 415 81 415 70 c 0
 415 52 376 -8 312 -8 c 0x78
 256 -8 247 63 241 63 c 0
 237 63 185 -15 88 -15 c 0
 59 -15 35 -4 35 40 c 0
 35 141 154 196 234 217 c 0
 247 220 252 224 253 243 c 0
 254 262 255 280 255 299 c 0
 255 347 238 372 196 372 c 0xb4
103 81 m 0
 103 44 122 38 144 38 c 0
 188 38 239 73 244 98 c 0
 246 109 249 129 249 163 c 0xb8
 249 185 246 196 238 196 c 0
 207 196 103 145 103 81 c 0
EndSplineSet
Validated: 1
EndChar

StartChar: b
Encoding: 98 98 1
Width: 494
VWidth: 0
Flags: W
HStem: -12 33<190.514 319.454> 361 47<195.879 307.17>
VStem: 84 65<53.5195 351.083 373.255 601.546> 397 66<113.516 269.267>
LayerCount: 3
Fore
SplineSet
146 637 m 0
 148 534 147 465 149 373 c 0
 149 368 148 359 160 367 c 0
 181 380 233 408 274 408 c 0
 391 408 463 321 463 200 c 0
 463 84 350 -12 244 -12 c 0
 201 -12 170 7 139 7 c 0
 109 7 115 -48 98 -48 c 0
 82 -48 81 -42 81 -25 c 0
 81 -13 84 21 84 67 c 0
 84 103 80 404 78 573 c 0
 77 620 18 600 18 624 c 0
 18 630 21 637 33 640 c 0
 94 654 118 676 133 676 c 0
 146 676 146 653 146 637 c 0
149 120 m 2
 149 40 204 21 268 21 c 0
 332 21 397 75 397 187 c 0
 397 282 323 361 226 361 c 0
 201 361 149 354 149 325 c 2
 149 120 l 2
EndSplineSet
Validated: 1
EndChar

StartChar: c
Encoding: 99 99 2
Width: 411
VWidth: 0
Flags: W
HStem: -25 57<177.939 307.799> 381 36<173.678 286.024>
VStem: 36 64<116.374 284.708>
LayerCount: 3
Back
SplineSet
100 205 m 4
 100 105 169 32 250 32 c 4
 283 32 331 46 357 73 c 4
 358 74 369 91 377 91 c 4
 381 91 385 88 385 83 c 4
 385 66 372 49 368 45 c 4
 329 -2 274 -25 220 -25 c 4
 124 -25 36 46 36 178 c 4
 36 306 117 417 257 417 c 4
 301 417 365 405 365 356 c 4
 365 339 351 331 341 331 c 4
 300 331 295 381 239 381 c 4
 143 381 100 292 100 205 c 4
EndSplineSet
Fore
SplineSet
222 -25 m 0
 124 -25 36 46 36 178 c 0
 36 306 117 417 257 417 c 0
 301 417 365 405 365 356 c 0
 365 339 351 331 341 331 c 0
 300 331 295 381 239 381 c 0
 143 381 100 292 100 205 c 0
 100 106 170 32 247 32 c 0
 340 32 365 91 377 91 c 0
 381 91 385 88 385 83 c 0
 385 36 300 -25 222 -25 c 0
EndSplineSet
Validated: 1
EndChar

StartChar: d
Encoding: 100 100 3
Width: 493
VWidth: 0
Flags: W
HStem: -25 21G<333.5 341> -8 43<174.151 302.857> 374 24<173.617 275.604> 650 27<244.093 311.886>
VStem: 27 62<118.394 280.381> 317 68<387.788 646.312> 326 62<39.566 336.176>
LayerCount: 3
Back
SplineSet
466 22 m 4x7a
 466 15 460 13 458 12 c 4
 429 4 405 -2 376 -12 c 4
 361 -17 344 -25 339 -25 c 4
 330 -25 326 -16 326 2 c 6
 326 25 l 5xba
 293 6 248 -8 211 -8 c 4
 90 -8 27 74 27 188 c 4
 27 296 106 398 236 398 c 4
 271 398 317 381 317 381 c 5
 314 629 l 6
 314 637 310 645 298 646 c 4
 272 649 271 649 263 650 c 4
 251 651 244 654 244 662 c 4
 244 673 252 676 264 677 c 4
 298 680 375 686 378 686 c 4
 385 686 386 682 386 675 c 4
 386 553 385 419 385 286 c 4x7c
 385 200 385 118 388 42 c 4
 388 31 397 28 406 28 c 4
 422 28 443 37 452 37 c 4
 460 37 466 32 466 22 c 4x7a
258 35 m 4x7a
 321 35 326 43 326 101 c 4
 326 156 324 224 322 278 c 4
 320 337 283 374 227 374 c 4
 144 374 89 303 89 206 c 4
 89 98 167 35 258 35 c 4x7a
EndSplineSet
Fore
SplineSet
466 22 m 0x7a
 466 15 460 13 458 12 c 0
 383 -7 343 -25 339 -25 c 0
 328 -25 326 -14 326 17 c 0xba
 326 27 320 21 313 18 c 0
 282 3 243 -8 211 -8 c 0
 90 -8 27 74 27 188 c 0
 27 296 106 398 236 398 c 0
 260 398 289 390 305 385 c 0
 317 381 317 383 317 401 c 2
 314 629 l 2
 314 637 310 645 298 646 c 2
 263 650 l 2
 251 651 244 654 244 662 c 0
 244 673 252 676 264 677 c 0
 298 680 375 686 378 686 c 0
 385 686 386 682 386 675 c 0
 386 553 385 419 385 286 c 0x7c
 385 200 385 118 388 42 c 0
 388 31 397 28 406 28 c 0
 422 28 443 37 452 37 c 0
 460 37 466 32 466 22 c 0x7a
258 35 m 0x7a
 321 35 326 43 326 101 c 0
 326 156 324 224 322 278 c 0
 320 337 283 374 227 374 c 0
 144 374 89 303 89 206 c 0
 89 98 167 35 258 35 c 0x7a
EndSplineSet
Validated: 1
EndChar

StartChar: e
Encoding: 101 101 4
Width: 424
VWidth: 0
Flags: W
HStem: -25 63<162.431 292.256> 229 23<97.3754 248.327> 238 26<168.333 296.278> 379 29<173.347 270.815>
VStem: 30 57<113.721 256.752> 312 70<248 322.94>
LayerCount: 3
Back
SplineSet
30 184 m 4xdc
 30 294 103 408 230 408 c 4
 324 408 382 305 382 258 c 4
 382 238 364 238 362 238 c 6xbc
 113 229 l 6
 95 228 87 230 87 209 c 4
 87 108 142 38 250 38 c 4
 323 38 343 83 359 83 c 4
 365 83 369 80 369 73 c 4
 369 54 338 17 292 -4 c 4
 265 -17 234 -25 203 -25 c 4
 93 -25 30 72 30 184 c 4xdc
312 300 m 5
 308 344 274 379 215 379 c 4
 169 379 97 311 97 259 c 4
 97 252 100 252 111 252 c 4xdc
 126 252 216 260 254 264 c 4
 284 267 301 271 312 300 c 5
EndSplineSet
Fore
SplineSet
30 184 m 0xdc
 30 294 103 408 230 408 c 0
 324 408 382 305 382 258 c 0
 382 238 364 238 362 238 c 2xbc
 113 229 l 2
 95 228 87 230 87 209 c 0
 87 108 142 38 250 38 c 0
 323 38 343 83 359 83 c 0
 365 83 369 80 369 73 c 0
 369 40 292 -25 203 -25 c 0
 93 -25 30 72 30 184 c 0xdc
215 379 m 0
 169 379 97 311 97 259 c 0
 97 252 100 252 111 252 c 0xdc
 126 252 216 260 254 264 c 0
 275 266 289 269 300 280 c 0
 307 288 312 297 312 300 c 0
 312 325 289 379 215 379 c 0
EndSplineSet
Validated: 1
EndChar

StartChar: f
Encoding: 102 102 5
Width: 326
VWidth: 0
Flags: W
HStem: -3 33<33.0051 121.735 195.875 282.902> 352 39<194 304.988> 648 42<237.064 339.703>
VStem: 125 69<32.7879 339.947 391.003 533.75>
LayerCount: 3
Back
SplineSet
192 68 m 6xd8
 192 40 202 32 230 31 c 6
 251 30 l 6
 268 30 283 29 283 16 c 4
 283 4 278 -3 267 -3 c 4
 244 -3 215 0 157 0 c 4
 119 0 76 -3 52 -3 c 4
 35 -3 33 3 33 14 c 4
 33 23 40 26 53 27 c 4
 102 29 123 24 123 58 c 6
 125 324 l 6
 125 339 127 343 112 341 c 4
 91 339 75 333 67 333 c 4
 59 333 55 340 55 350 c 4
 55 359 88 368 110 373 c 4
 126 376 128 379 128 387 c 6
 128 398 l 6xb8
 128 499 155 589 205 645 c 4
 229 673 273 690 315 690 c 4
 340 690 368 684 368 660 c 4
 368 640 351 622 331 622 c 4
 307 622 296 648 267 648 c 4
 234 648 210 592 203 558 c 4
 195 518 194 469 194 415 c 6
 194 405 l 6
 194 395 195 390 204 390 c 4xd8
 229 391 274 395 293 396 c 4
 301 396 305 396 305 381 c 6
 305 372 l 6
 305 362 301 357 288 356 c 4xb8
 274 355 238 354 214 352 c 4
 196 350 194 350 194 339 c 6
 192 68 l 6xd8
EndSplineSet
Fore
SplineSet
311 690 m 0
 337 690 368 685 368 660 c 0
 368 640 351 622 331 622 c 0
 307 622 296 648 267 648 c 0
 234 648 194 594 194 455 c 2
 194 405 l 2
 194 395 195 391 204 391 c 0
 229 392 274 395 293 396 c 0
 301 396 305 396 305 381 c 2
 305 372 l 2
 305 362 301 357 288 356 c 0
 274 355 238 354 214 352 c 0
 196 350 194 350 194 339 c 2
 192 68 l 2
 192 30 213 31 251 30 c 0
 268 30 283 29 283 16 c 0
 283 4 278 -3 267 -3 c 0
 244 -3 215 0 157 0 c 0
 119 0 76 -3 52 -3 c 0
 35 -3 33 3 33 14 c 0
 33 23 40 26 53 27 c 0
 102 29 123 24 123 58 c 2
 125 324 l 2
 125 339 127 343 112 341 c 0
 91 339 75 333 67 333 c 0
 59 333 55 340 55 350 c 0
 55 359 88 368 110 373 c 0
 126 376 127 379 127 387 c 0
 127 531 175 690 311 690 c 0
EndSplineSet
Validated: 1
Layer: 2
SplineSet
192 68 m 6xd8
 192 40 202 32 230 31 c 6
 251 30 l 6
 268 30 283 29 283 16 c 4
 283 4 278 -3 267 -3 c 4
 244 -3 215 0 157 0 c 4
 119 0 76 -3 52 -3 c 4
 35 -3 33 3 33 14 c 4
 33 23 40 26 53 27 c 4
 102 29 123 24 123 58 c 6
 125 324 l 6
 125 339 127 343 112 341 c 4
 91 339 75 333 67 333 c 4
 59 333 55 340 55 350 c 4
 55 359 88 368 110 373 c 4
 126 376 128 379 128 387 c 6
 128 398 l 6xb8
 128 499 153 589 203 645 c 4
 226 671 252 693 300 693 c 4
 321 693 372 689 372 664 c 4
 372 653 352 623 331 623 c 4
 307 623 296 652 267 652 c 4
 234 652 215 592 208 558 c 4
 200 518 194 469 194 415 c 6
 194 405 l 6
 194 395 195 391 204 391 c 4xd8
 229 392 274 397 293 398 c 4
 301 398 305 398 305 383 c 6
 305 374 l 6
 305 364 301 359 288 358 c 4xb8
 274 357 238 354 214 352 c 4
 196 350 194 350 194 339 c 6
 192 68 l 6xd8
EndSplineSet
EndChar

StartChar: g
Encoding: 103 103 6
Width: 461
VWidth: 0
Flags: W
HStem: -264 31<99.1016 250.987> -33 62<105.556 336.556> 118 22<170.451 244.044> 332 56<350.257 429.843> 386 24<165.864 245.666>
VStem: -4 54<-199.238 -96.8574> 36 59<37.7454 97.3628> 58 65<178.306 342.536> 292 63<189.999 331.828> 360 52<-154.77 -56.6751>
LayerCount: 3
Back
SplineSet
207 140 m 4xe9c0
 267 140 292 203 292 274 c 4
 292 351 246 386 206 386 c 4
 158 386 123 347 123 270 c 4
 123 190 156 140 207 140 c 4xe9c0
360 -102 m 4
 360 -78 349 -33 244 -33 c 4
 212 -33 180 -33 146 -37 c 4
 114 -41 50 -83 50 -148 c 4xe4c0
 50 -216 125 -233 182 -233 c 4
 255 -233 360 -188 360 -102 c 4
58 271 m 4xf1c0
 58 346 120 410 210 410 c 4
 246 410 274 401 298 390 c 4
 304 387 306 386 316 386 c 4xe9c0
 348 387 381 388 405 388 c 4
 429 388 430 372 430 361 c 4
 430 342 429 332 412 332 c 6
 354 332 l 6
 345 332 347 325 349 316 c 4
 352 304 355 285 355 273 c 4
 355 217 331 177 295 143 c 4
 274 124 236 118 194 118 c 6
 147 118 l 6
 135 118 95 80 95 66 c 4xf2c0
 95 54 110 41 124 33 c 4
 137 25 147 24 160 24 c 4
 196 24 252 29 283 29 c 4
 350 29 412 -2 412 -82 c 4
 412 -195 273 -264 154 -264 c 4
 73 -264 -4 -243 -4 -157 c 4xf4c0
 -4 -92 54 -60 93 -41 c 4
 102 -37 113 -31 113 -28 c 4
 113 -24 101 -17 92 -10 c 4
 62 14 36 48 36 74 c 4xf2c0
 36 92 37 92 60 99 c 4
 80 106 122 118 122 126 c 4
 122 131 112 141 108 145 c 4
 78 175 58 198 58 271 c 4xf1c0
EndSplineSet
Fore
SplineSet
207 140 m 0xe9c0
 267 140 292 203 292 274 c 0
 292 351 246 386 206 386 c 0
 158 386 123 347 123 270 c 0
 123 190 156 140 207 140 c 0xe9c0
360 -102 m 0
 360 -78 349 -33 244 -33 c 0
 212 -33 180 -33 146 -37 c 0
 114 -41 50 -83 50 -148 c 0xe4c0
 50 -216 125 -233 182 -233 c 0
 255 -233 360 -188 360 -102 c 0
58 271 m 0xf1c0
 58 346 120 410 210 410 c 0
 273 410 295 386 314 386 c 0xe9c0
 334 386 381 388 405 388 c 0
 429 388 430 372 430 361 c 0
 430 342 429 332 412 332 c 2
 354 332 l 2
 345 332 347 325 349 316 c 0
 352 304 355 285 355 273 c 0
 355 217 331 177 295 143 c 0
 274 124 236 118 194 118 c 2
 147 118 l 2
 135 118 95 80 95 66 c 0xf2c0
 95 54 110 41 124 33 c 0
 137 25 147 24 160 24 c 0
 196 24 252 29 283 29 c 0
 350 29 412 -2 412 -82 c 0
 412 -195 273 -264 154 -264 c 0
 73 -264 -4 -243 -4 -157 c 0xf4c0
 -4 -66 113 -39 113 -28 c 0
 113 -24 36 25 36 74 c 0xf2c0
 36 92 37 92 60 99 c 0
 80 106 122 118 122 126 c 0
 122 131 112 141 108 145 c 0
 78 175 58 198 58 271 c 0xf1c0
EndSplineSet
Validated: 1
EndChar

StartChar: h
Encoding: 104 104 7
Width: 519
VWidth: 0
Flags: W
HStem: -4 29<10.0146 82.2072 157.516 231.825 287.012 352.711 424.426 506.994> 368 44<221.63 336.825>
VStem: 85 69<29.3604 332.157> 91 65<344.007 596.904> 365 63<36.3282 337.972>
LayerCount: 3
Back
SplineSet
196 374 m 4
 225 394 256 412 304 412 c 4
 389 412 428 366 428 275 c 4
 428 224 422 109 422 58 c 4
 422 26 433 25 457 25 c 6
 483 25 l 6
 500 25 507 24 507 11 c 4
 507 -2 499 -3 493 -3 c 4
 489 -3 426 0 385 0 c 4
 360 0 330 -4 310 -4 c 4
 292 -4 287 0 287 10 c 4
 287 18 291 24 311 25 c 6
 327 26 l 6
 345 27 347 28 353 36 c 4
 358 42 359 53 359 65 c 4
 359 131 365 194 365 259 c 4
 365 322 343 368 274 368 c 4
 229 368 187 347 168 325 c 4
 156 312 155 309 155 292 c 6
 154 58 l 6
 154 30 166 31 190 27 c 4
 212 23 234 25 234 12 c 6
 234 5 l 6
 234 -1 232 -2 214 -2 c 4
 184 -2 196 0 120 0 c 4
 83 0 36 -2 32 -2 c 4
 22 -2 10 -1 10 10 c 4
 10 26 30 23 46 24 c 4
 60 25 85 27 85 52 c 4
 86 134 87 215 87 297 c 4
 87 353 91 560 91 565 c 4
 91 588 91 595 83 597 c 4
 73 599 49 602 46 602 c 4
 34 603 30 609 30 614 c 4
 30 620 37 625 48 629 c 4
 84 641 141 664 149 664 c 4
 159 664 161 659 161 653 c 4
 161 551 156 557 156 420 c 6
 156 384 l 6
 156 354 156 344 161 344 c 4
 166 344 174 359 196 374 c 4
EndSplineSet
Fore
SplineSet
196 374 m 0xd8
 225 394 256 412 304 412 c 0
 389 412 428 366 428 275 c 0
 428 224 422 109 422 58 c 0
 422 22 435 26 483 25 c 0
 500 25 507 24 507 11 c 0
 507 -2 499 -3 493 -3 c 0
 489 -3 426 0 385 0 c 0
 360 0 330 -4 310 -4 c 0
 292 -4 287 0 287 10 c 0
 287 20 291 23 311 25 c 0
 331 27 347 25 353 36 c 0
 357 43 359 50 359 65 c 0
 359 131 365 194 365 259 c 0
 365 322 343 368 274 368 c 0
 229 368 187 347 168 325 c 0
 156 312 155 309 155 292 c 2
 154 58 l 2
 154 30 166 31 190 27 c 0
 212 23 234 25 234 12 c 2
 234 5 l 2
 234 -1 232 -2 214 -2 c 0
 184 -2 196 0 120 0 c 0
 83 0 36 -2 32 -2 c 0
 22 -2 10 -1 10 10 c 0
 10 26 30 23 46 24 c 0
 60 25 85 27 85 52 c 0xe8
 87 200 88 442 91 575 c 0
 91 590 90 595 83 597 c 0
 62 602 30 599 30 613 c 0
 30 620 37 625 48 629 c 0
 84 641 141 664 149 664 c 0
 159 664 161 659 161 653 c 0
 161 551 156 557 156 420 c 2
 156 384 l 2
 156 354 156 344 161 344 c 0
 166 344 174 359 196 374 c 0xd8
EndSplineSet
Validated: 1
EndChar

StartChar: i
Encoding: 105 105 8
Width: 287
VWidth: 0
Flags: W
HStem: -1 28<38.3563 107.169 189.015 257.905> 580 82<124.877 197.123>
VStem: 115 66<31.5168 313.896> 120 82<584.877 657.123>
LayerCount: 3
Back
SplineSet
120 621 m 4xd0
 120 644 138 662 161 662 c 4
 184 662 202 644 202 621 c 4
 202 598 184 580 161 580 c 4
 138 580 120 598 120 621 c 4xd0
181 434 m 4xe0
 190 434 192 422 192 416 c 4
 192 410 181 211 181 87 c 4
 181 33 190 28 242 27 c 4
 255 27 258 20 258 15 c 4
 258 5 253 -1 235 -1 c 4
 222 -1 177 0 152 0 c 4
 117 0 88 -2 64 -2 c 4
 51 -2 38 -1 38 9 c 4
 38 23 48 24 66 24 c 4
 101 24 114 34 115 83 c 6
 119 308 l 6
 119 323 101 339 82 342 c 4
 73 344 61 343 61 354 c 4
 61 362 63 367 80 370 c 4
 120 377 136 395 154 415 c 4
 163 426 174 434 181 434 c 4xe0
EndSplineSet
Fore
SplineSet
120 621 m 0xd0
 120 644 138 662 161 662 c 0
 184 662 202 644 202 621 c 0
 202 598 184 580 161 580 c 0
 138 580 120 598 120 621 c 0xd0
181 434 m 0xe0
 190 434 192 422 192 416 c 0
 192 410 181 211 181 87 c 0
 181 33 190 28 242 27 c 0
 255 27 258 20 258 15 c 0
 258 5 253 -1 235 -1 c 0
 222 -1 177 0 152 0 c 0
 117 0 88 -2 64 -2 c 0
 51 -2 38 -1 38 9 c 0
 38 23 48 24 66 24 c 0
 101 24 114 34 115 83 c 2
 119 308 l 2
 119 323 101 339 82 342 c 0
 73 344 61 343 61 354 c 0
 61 362 63 367 80 370 c 0
 120 377 136 395 154 415 c 0
 163 426 174 434 181 434 c 0xe0
EndSplineSet
Validated: 1
EndChar

StartChar: j
Encoding: 106 106 9
Width: 284
VWidth: 0
Flags: W
HStem: 566 82<80.8767 153.123>
VStem: 76 82<570.877 643.123> 124 71<-99.1266 420>
LayerCount: 3
Back
SplineSet
76 607 m 4xc0
 76 630 94 648 117 648 c 4
 140 648 158 630 158 607 c 4
 158 584 140 566 117 566 c 4
 94 566 76 584 76 607 c 4xc0
179 440 m 4
 191 440 195 428 195 420 c 4
 195 296 192 91 189 -10 c 4
 185 -138 114 -206 78 -230 c 4
 73 -234 67 -236 61 -236 c 4
 58 -236 49 -229 49 -224 c 4
 49 -216 52 -214 57 -208 c 4
 77 -188 121 -158 121 -27 c 4
 121 50 124 227 124 304 c 4xa0
 124 360 94 351 78 358 c 4
 72 361 68 364 68 370 c 4
 68 376 72 382 81 385 c 4
 112 397 135 409 154 425 c 4
 165 434 172 440 179 440 c 4
EndSplineSet
Fore
SplineSet
76 607 m 0xc0
 76 630 94 648 117 648 c 0
 140 648 158 630 158 607 c 0
 158 584 140 566 117 566 c 0
 94 566 76 584 76 607 c 0xc0
179 440 m 0
 191 440 195 428 195 420 c 0
 195 296 190 50 189 -10 c 0
 187 -150 87 -236 61 -236 c 0
 58 -236 49 -229 49 -224 c 0
 49 -193 121 -198 121 -27 c 0
 121 50 124 227 124 304 c 0xa0
 124 360 94 351 78 358 c 0
 72 361 68 364 68 370 c 0
 68 376 72 382 81 385 c 0
 112 397 135 409 154 425 c 0
 165 434 172 440 179 440 c 0
EndSplineSet
Validated: 1
EndChar

StartChar: k
Encoding: 107 107 10
Width: 530
VWidth: 0
Flags: W
HStem: -2 28<28.0387 91.7578 265.039 313.59 433.737 508.874> 369 25<298.108 340.751> 373 32<417.967 498.974>
VStem: 99 67<31.0337 184 219.476 473.5> 104 74<400.5 612.904>
DStem2: 176 211 173 182 0.810378 0.585907<-5.8423 -5.52758 67.406 202.234> 402 66 310 57 0.697865 -0.71623<-225.477 -45.7584>
LayerCount: 3
Back
SplineSet
104 578 m 4xa8
 104 606 94.3779296875 611.32421875 86 613 c 4
 66 617 45 614 45 629 c 4
 45 636 49 641 57 643 c 4
 92 652 156 672 167 672 c 4
 176 672 178 666 178 656 c 6
 165 203 l 5
 221 243 268 281 324 329 c 4
 332 336 342 346 342 353 c 4
 342 368 327 369 313 369 c 4
 304 369 298 371 298 380 c 4
 298 387 304 394 310 394 c 4xc8
 368 397 438 405 477 405 c 4
 490 405 499 401 499 390 c 4
 499 377 491 375 479 373 c 4
 462 370 447 368 432 363 c 4
 413 356 395 343 386 336 c 4
 305 272 316 284 242 230 c 5
 402 66 l 6
 420 48 436 30 478 30 c 6
 488 30 l 6
 500 30 509 27 509 14 c 4
 509 1 498 -1 486 -1 c 4
 451 -1 427 0 388 0 c 4
 345 0 322 -2 281 -2 c 4
 271 -2 265 4 265 13 c 4
 265 23 274 26 280 27 c 4
 298 29 314 28 314 44 c 4
 314 47 313 54 310 57 c 4
 251 124 182 190 182 190 c 5
 166 179 l 5
 168 70 l 5
 168 12 222 36 222 13 c 4
 222 1 213 -2 202 -2 c 4
 179 -2 185 0 127 0 c 4
 89 0 70 -2 46 -2 c 4
 29 -2 28 6 28 14 c 4
 28 25 40 26 50 26 c 4
 83 26 98 34 99 66 c 4xb0
 101 165 102 422 104 578 c 4xa8
EndSplineSet
Fore
SplineSet
104 578 m 0xa8
 104 606 94 611 86 613 c 0
 66 617 45 614 45 629 c 0
 45 636 49 641 57 643 c 0
 92 652 156 672 167 672 c 0
 176 672 178 666 178 656 c 2xa8
 166 218 l 2
 165 201 168 205 176 211 c 0
 226 247 273 285 324 329 c 0
 332 336 342 346 342 353 c 0
 342 368 327 369 313 369 c 0
 304 369 298 371 298 380 c 0
 298 387 304 394 310 394 c 0xd0
 368 397 438 405 477 405 c 0
 490 405 499 401 499 390 c 0
 499 377 491 375 479 373 c 0
 425 366 408 353 386 336 c 0
 308 274 306 277 249 234 c 0
 246 232 243 229 250 222 c 2
 402 66 l 2
 427 41 439 30 488 30 c 0
 500 30 509 27 509 14 c 0
 509 1 498 -1 486 -1 c 0
 451 -1 427 0 388 0 c 0
 345 0 322 -2 281 -2 c 0
 271 -2 265 4 265 13 c 0
 265 23 274 26 280 27 c 0
 298 29 314 28 314 44 c 0
 314 47 313 54 310 57 c 0
 264 109 213 160 192 180 c 0
 184 188 182 189 173 182 c 0
 166 177 166 176 166 164 c 2
 168 70 l 2
 169 11 222 36 222 13 c 0
 222 1 213 -2 202 -2 c 0
 179 -2 185 0 127 0 c 0
 89 0 70 -2 46 -2 c 0
 29 -2 28 6 28 14 c 0
 28 25 40 26 50 26 c 0
 83 26 98 34 99 66 c 0xb0
 101 165 102 422 104 578 c 0xa8
EndSplineSet
Validated: 1
EndChar

StartChar: l
Encoding: 108 108 11
Width: 326
VWidth: 0
Flags: W
HStem: -3 35<43.0269 132.189 208.146 288.941>
VStem: 133 73<33.9246 612.25> 138 75<68 610.75>
LayerCount: 3
Back
SplineSet
138 578 m 6xa0
 138 606 134 605 126 608 c 4
 116 611 101 615 98 616 c 4
 89 618 83 622 83 629 c 4
 83 636 87 641 95 643 c 4
 130 652 191 670 202 670 c 4
 211 670 213 664 213 654 c 6xa0
 206 68 l 6
 206 40 212 34 240 33 c 6
 261 32 l 6
 278 32 289 25 289 16 c 4
 289 4 284 -3 273 -3 c 4
 250 -3 225 0 167 0 c 4
 129 0 86 -6 62 -6 c 4
 45 -6 43 3 43 14 c 4
 43 30 80 27 96 29 c 4
 122 33 132 30 133 58 c 4xc0
 135 153 138 217 138 395 c 6
 138 578 l 6xa0
EndSplineSet
Fore
SplineSet
138 578 m 2xa0
 138 606 134 606 126 608 c 2
 98 616 l 2
 89 618 83 622 83 629 c 0
 83 636 87 641 95 643 c 0
 130 652 191 670 202 670 c 0
 211 670 213 664 213 654 c 2xa0
 206 68 l 2
 206 30 220 34 261 32 c 0
 280 31 289 25 289 16 c 0
 289 4 284 -3 273 -3 c 0
 250 -3 225 0 167 0 c 0
 129 0 86 -6 62 -6 c 0
 45 -6 43 3 43 14 c 0
 43 30 80 27 96 29 c 0
 122 33 132 30 133 58 c 0xc0
 135 153 138 217 138 395 c 2
 138 578 l 2xa0
EndSplineSet
Validated: 1
EndChar

StartChar: m
Encoding: 109 109 12
Width: 776
VWidth: 0
Flags: W
HStem: 0 26<36.1387 107.684 183.756 251.948 299.046 356.526 438.17 498.719 535.336 604.632 685.143 748.6> 377 42<247.716 347.877 486.398 589.491>
VStem: 112 67<29.7556 342.745> 363 69<28.759 350.741> 613 65<28.6797 354.26>
LayerCount: 3
Back
SplineSet
327 419 m 4
 376 419 414 397 428 359 c 5
 448 377 502 417 556 417 c 4
 654 417 683 370 683 279 c 4
 683 204 678 140 678 63 c 4
 678 36 695 28 710 26 c 4
 730 23 749 24 749 10 c 4
 749 0 733 -2 727 -2 c 4
 724 -2 679 0 646 0 c 4
 613 0 600 -1 567 -1 c 4
 554 -1 535 0 535 10 c 4
 535 19 542 22 555 22 c 4
 600 24 613 32 613 82 c 6
 613 292 l 6
 613 336 590 378 534 378 c 4
 484 378 433 345 433 321 c 4
 433 254 432 182 432 113 c 6
 432 61 l 6
 432 34 449 28 464 26 c 4
 484 23 499 24 499 10 c 4
 499 0 483 -2 477 -2 c 4
 464 -2 439 0 398 0 c 6
 319 0 l 6
 306 0 299 2 299 12 c 4
 299 24 309 26 322 26 c 6
 337 27 l 6
 360 29 363 52 363 82 c 6
 363 292 l 6
 363 333 359 377 296 377 c 4
 235 377 182 351 182 294 c 4
 181 219 179 144 179 69 c 4
 179 28 189 32 212 28 c 4
 234 24 252 25 252 12 c 4
 252 8 248 0 225 0 c 6
 146 0 l 6
 109 0 62 -2 58 -2 c 4
 48 -2 36 0 36 11 c 4
 36 23 48 23 64 24 c 4
 78 25 112 27 112 52 c 4
 113 134 114 247 114 329 c 4
 114 379 51 350 51 375 c 4
 51 387 64 387 90 390 c 4
 118 393 142 405 161 436 c 4
 165 443 173 450 181 450 c 4
 187 450 191 446 191 435 c 4
 191 427 186 407 186 387 c 4
 186 374 188 369 192 369 c 4
 197 369 204 375 213 380 c 4
 242 396 281 419 327 419 c 4
EndSplineSet
Fore
SplineSet
327 419 m 0
 372 419 408 400 424 368 c 0
 429 359 428 359 435 365 c 0
 459 385 508 417 556 417 c 0
 654 417 683 370 683 279 c 0
 683 204 678 140 678 63 c 0
 678 36 695 28 710 26 c 0
 730 23 749 24 749 10 c 0
 749 0 733 -2 727 -2 c 0
 724 -2 679 0 646 0 c 0
 613 0 600 -1 567 -1 c 0
 554 -1 535 0 535 10 c 0
 535 19 542 22 555 22 c 0
 600 24 613 32 613 82 c 2
 613 292 l 2
 613 336 590 378 534 378 c 0
 484 378 433 345 433 321 c 0
 433 237 432 147 432 61 c 0
 432 34 449 28 464 26 c 0
 484 23 499 24 499 10 c 0
 499 0 483 -2 477 -2 c 0
 464 -2 439 0 398 0 c 2
 319 0 l 2
 306 0 299 2 299 12 c 0
 299 24 309 25 322 26 c 0
 358 28 363 38 363 80 c 2
 363 292 l 2
 363 333 359 377 296 377 c 0
 235 377 182 351 182 294 c 0
 181 219 179 144 179 69 c 0
 179 28 189 32 212 28 c 0
 234 24 252 25 252 12 c 0
 252 8 248 0 225 0 c 2
 146 0 l 2
 109 0 62 -2 58 -2 c 0
 48 -2 36 0 36 11 c 0
 36 23 48 23 64 24 c 0
 78 25 112 27 112 52 c 0
 113 134 114 247 114 329 c 0
 114 379 51 350 51 375 c 0
 51 387 64 387 90 390 c 0
 118 393 142 405 161 436 c 0
 165 443 173 450 181 450 c 0
 187 450 191 446 191 435 c 0
 191 427 186 407 186 387 c 0
 186 374 188 369 192 369 c 0
 197 369 204 375 213 380 c 0
 242 396 281 419 327 419 c 0
EndSplineSet
Validated: 1
EndChar

StartChar: n
Encoding: 110 110 13
Width: 506
VWidth: 0
Flags: W
HStem: -2 28<26.0406 84.1704 156.385 233.984 279.093 345.665 421.617 481.936> 368 49<214.33 339.732>
VStem: 89 65<29.425 327.304> 125 31<385.187 427.664> 356 64<35.5785 351.357>
LayerCount: 3
Back
SplineSet
302 26 m 6xd8
 311 26 l 6
 329 26 340 27 346 35 c 4
 355 47 356 81 356 112 c 6
 356 269 l 6
 356 338 347 368 274 368 c 4
 229 368 185 358 166 336 c 4
 154 323 154 309 154 292 c 6
 153 58 l 6
 153 30 166 31 190 27 c 4
 212 23 234 25 234 12 c 6
 234 5 l 6
 234 -1 232 -2 214 -2 c 4
 184 -2 196 0 120 0 c 4
 83 0 46 -2 42 -2 c 4
 32 -2 26 0 26 11 c 4
 26 27 40 25 56 26 c 4
 70 27 86 27 86 52 c 4
 87.0057503912 133.801031819 89.0142403628 215.650247875 89.0142403628 297.462708563 c 4xe8
 89.0142403628 347.376689342 38 315.238095238 38 340 c 4
 38 352 46 353 64 358 c 4
 73 361 86 365 95 371 c 4
 106 378 118 395 125 409 c 4
 130 419 132 428 144 428 c 4
 150 428 156 425 156 416 c 4
 156 407 152 387 152 366 c 4
 152 358 154 356 157 356 c 4
 161 356 167 362 174 368 c 4
 204 394 247 417 298 417 c 4
 362 417 426 400 426 312 c 4
 426 228 420 142 420 58 c 4
 420 31 425 32 440 30 c 4
 460 27 482 32 482 11 c 4
 482 -2 474 -2 468 -2 c 4
 464 -2 426 0 385 0 c 4
 352 0 317 -3 297 -3 c 4
 284 -3 279 0 279 10 c 4
 279 25 289 26 302 26 c 6xd8
EndSplineSet
Fore
SplineSet
302 26 m 0xd8
 322 27 339 26 346 35 c 0
 355 47 356 81 356 112 c 2
 356 269 l 2
 356 338 347 368 274 368 c 0
 229 368 185 358 166 336 c 0
 154 323 154 309 154 292 c 2
 153 58 l 2
 153 30 166 31 190 27 c 0
 212 23 234 25 234 12 c 0
 234 3 234 -2 214 -2 c 0
 184 -2 196 0 120 0 c 0
 83 0 46 -2 42 -2 c 0
 32 -2 26 0 26 11 c 0
 26 27 40 25 56 26 c 0
 70 27 86 27 86 52 c 0
 87 134 89 215 89 297 c 0xe8
 89 347 38 315 38 340 c 0
 38 353 46 352 64 358 c 0
 99 369 109 379 125 409 c 0
 130 419 132 428 144 428 c 0
 150 428 156 425 156 416 c 0
 156 407 152 387 152 366 c 0
 152 358 154 356 157 356 c 0
 161 356 167 362 174 368 c 0
 204 394 247 417 298 417 c 0
 362 417 426 400 426 312 c 0
 426 228 420 142 420 58 c 0
 420 31 425 32 440 30 c 0
 460 27 482 32 482 11 c 0
 482 -2 474 -2 468 -2 c 0
 464 -2 426 0 385 0 c 0
 352 0 317 -3 297 -3 c 0
 284 -3 279 0 279 10 c 0
 279 25 289 25 302 26 c 0xd8
EndSplineSet
Validated: 1
EndChar

StartChar: o
Encoding: 111 111 14
Width: 510
VWidth: 0
Flags: W
HStem: -17 28<197.218 313.353> 400 26<193.929 298.132>
VStem: 39 72<107.953 301.294> 392 79<101.835 307.207>
LayerCount: 3
Fore
SplineSet
471 202 m 0
 471 61 368 -17 247 -17 c 0
 136 -17 39 52 39 197 c 0
 39 334 129 426 257 426 c 0
 382 426 471 354 471 202 c 0
111 230 m 0
 111 121 157 11 248 11 c 0
 379 11 392 128 392 198 c 0
 392 331 316 400 249 400 c 0
 152 400 111 311 111 230 c 0
EndSplineSet
Validated: 1
EndChar

StartChar: p
Encoding: 112 112 15
Width: 526
VWidth: 0
Flags: W
HStem: -270 32<23.034 83.573> -266 35<192.239 274.992> 0 26<223.924 354.351> 363 31<25.1272 99.6086> 369 50<226.234 346.219>
VStem: 107 67<-226.577 28 54.1008 351.387> 148 37<421.165 473.874> 444 57<116.917 264.22>
LayerCount: 3
Back
SplineSet
313 419 m 4x2b
 413 419 501 358 501 220 c 0
 501 105 433 0 292 0 c 0
 225 0 176 28 176 28 c 1
 177 -188 l 2
 177 -207 178 -218 192 -227 c 0
 197 -230 209 -231 222 -231 c 2
 246 -231 l 2
 264 -231 275 -233 275 -249 c 0
 275 -263 268 -266 247 -266 c 0
 226 -266 178 -264 148 -264 c 0x6b
 124 -264 58 -270 49 -270 c 0
 23 -270 23 -264 23 -255 c 0
 23 -244 33 -239 46 -238 c 0
 59 -237 75 -236 84 -234 c 0
 95 -231 98 -225 101 -201 c 0
 104 -176 107 -108 107 -12 c 0
 107 99 103 334 103 334 c 2
 103 362 78 363 56 363 c 2
 48 363 l 2
 35 363 25 366 25 376 c 0
 25 391 36 394 51 394 c 2
 60 394 l 2xb5
 106 394 134 414 148 452 c 0
 152 463 154 474 169 474 c 0
 176 474 185 471 185 461 c 0
 185 440 173 424 171 382 c 0
 171 373 174 368 178 368 c 0
 183 368 190 373 199 380 c 0
 235 408 274 419 313 419 c 4x2b
268 369 m 0
 214 369 172 347 172 316 c 2
 174 94 l 2x2d
 175 46 245 26 289 26 c 0
 374 26 444 80 444 169 c 0
 444 283 363 369 268 369 c 0
EndSplineSet
Fore
SplineSet
313 419 m 0x2b
 413 419 503 358 503 220 c 0
 503 105 433 0 292 0 c 0
 242 0 201 16 186 23 c 0
 175 28 176 24 176 19 c 2
 177 -188 l 2
 177 -232 193 -230 246 -231 c 0
 264 -231 275 -233 275 -249 c 0
 275 -263 268 -266 247 -266 c 0
 226 -266 178 -264 148 -264 c 0x6b
 124 -264 58 -270 49 -270 c 0
 23 -270 23 -264 23 -255 c 0
 23 -244 33 -239 46 -238 c 0
 96 -235 96 -235 101 -201 c 0
 105 -176 107 -108 107 -12 c 0
 107 99 103 334 103 334 c 2
 103 363 77 363 48 363 c 0
 35 363 25 366 25 376 c 0
 25 391 36 394 51 394 c 0xb5
 105 394 130 408 148 452 c 0
 152 463 154 474 169 474 c 0
 176 474 185 471 185 461 c 0
 185 440 173 424 171 382 c 0
 171 373 174 368 178 368 c 0
 183 368 190 373 199 380 c 0
 235 408 274 419 313 419 c 0x2b
268 369 m 0
 214 369 172 347 172 316 c 2
 174 94 l 2x2d
 175 46 245 26 289 26 c 0
 374 26 442 80 442 169 c 0
 442 283 363 369 268 369 c 0
EndSplineSet
Validated: 1
EndChar

StartChar: q
Encoding: 113 113 16
Width: 475
VWidth: 0
Flags: W
HStem: -259 34<258.004 329.473 406.964 497.87> -10 52<172.73 297.262> 373 36<166.487 284.496>
VStem: 16 71<124.724 283.75> 333 74<-222.745 19 45.3788 329.401>
LayerCount: 3
Back
SplineSet
405 -195 m 6
 405 -206 408 -214 418 -220 c 4
 424 -224 441 -224 456 -224 c 4
 478 -224 498 -227 498 -244 c 4
 498 -258 496 -260 475 -260 c 4
 454 -260 401 -256 371 -256 c 4
 347 -256 294 -259 285 -259 c 4
 259 -259 258 -251 258 -242 c 4
 258 -236 263 -226 276 -225 c 4
 289 -224 306 -225 315 -223 c 4
 326 -220 331 -217 331 -193 c 6
 332 28 l 5
 332 28 260 -10 214 -10 c 4
 96 -10 16 83 16 188 c 4
 16 320 117 409 239 409 c 4
 259 409 282 405 302 398 c 4
 326 390 357 371 367 371 c 4
 388 371 376 419 404 419 c 4
 412 419 416 410 416 403 c 4
 414 356 408 302 407 183 c 6
 405 -195 l 6
267 42 m 6
 292 42 l 6
 313 42 333 47 333 87 c 6
 333 270 l 6
 333 323 284 373 229 373 c 4
 159 373 87 314 87 213 c 4
 87 100 168 42 267 42 c 6
EndSplineSet
Fore
SplineSet
405 -195 m 2
 405 -223 424 -224 456 -224 c 0
 478 -224 498 -227 498 -244 c 0
 498 -258 496 -260 475 -260 c 0
 454 -260 401 -256 371 -256 c 0
 347 -256 294 -259 285 -259 c 0
 259 -259 258 -251 258 -242 c 0
 258 -236 263 -226 276 -225 c 0
 314 -222 331 -232 331 -193 c 2
 332 19 l 2
 332 28 325 25 318 21 c 0
 295 10 247 -10 214 -10 c 0
 96 -10 16 83 16 188 c 0
 16 320 117 409 239 409 c 0
 306 409 351 371 367 371 c 0
 388 371 376 419 404 419 c 0
 412 419 416 410 416 403 c 0
 414 356 408 302 407 183 c 2
 405 -195 l 2
267 42 m 0
 312 42 333 42 333 87 c 2
 333 270 l 2
 333 323 284 373 229 373 c 0
 159 373 87 314 87 213 c 0
 87 100 168 42 267 42 c 0
EndSplineSet
Validated: 1
EndChar

StartChar: r
Encoding: 114 114 17
Width: 371
VWidth: 0
Flags: W
HStem: -2 29<37.049 96.854 179.259 262.886> 350 61<231.468 311.5>
VStem: 101 70<35.9658 326.212>
LayerCount: 3
Back
SplineSet
160 435 m 0x70
 167 435 173 430 173 423 c 0
 173 419 165 372 165 366 c 0
 165 354 169 349 174 349 c 0
 180 349 189 355 199 364 c 0
 220 384 255 411 303 411 c 0
 320 411 357 400 357 368 c 0
 357 329 325 321 312 321 c 0
 284 321 258 350 242 350 c 0
 222 350 204 338 191 327 c 0
 171 310 170 305 170 283 c 0
 170 235 168 185 168 135 c 0
 168 108 168 82 171 57 c 0
 174 35 188 37 206 34 c 0
 214 33 241 31 241 31 c 2
 259 29 263 29 263 15 c 0
 263 5 259 -2 241 -2 c 0xb0
 228 -2 173 2 148 2 c 0
 117 2 76 -2 56 -2 c 0
 42 -2 36 -2 36 6 c 0
 36 23 51 25 68 27 c 0
 100 30 100 38 101 83 c 2
 103 308 l 2
 103 323 76 328 57 331 c 0
 48 333 42 332 42 343 c 0
 42 354 45 357 62 361 c 0
 79 366 93 372 103 379 c 0
 121 392 132 408 149 428 c 0
 153 433 156 435 160 435 c 0x70
EndSplineSet
Fore
SplineSet
160 435 m 0
 167 435 173 430 173 423 c 0
 173 419 165 372 165 366 c 0
 165 354 169 349 174 349 c 0
 196 349 226 411 303 411 c 0
 320 411 357 400 357 368 c 0
 357 329 325 321 312 321 c 0
 284 321 258 350 242 350 c 0
 222 350 204 338 191 327 c 0
 171 310 170 305 170 283 c 0
 170 235 168 185 168 135 c 0
 168 93 169 82 171 57 c 0
 173 33 197 35 241 31 c 0
 259 29 263 29 263 15 c 0
 263 5 259 -2 241 -2 c 0
 228 -2 173 2 148 2 c 0
 117 2 76 -2 56 -2 c 0
 42 -2 36 -2 36 6 c 0
 36 23 51 25 68 27 c 0
 100 30 100 38 101 83 c 2
 103 308 l 2
 103 323 76 328 57 331 c 0
 48 333 42 332 42 343 c 0
 42 355 45 356 62 361 c 0
 109 374 120 393 149 428 c 0
 153 433 156 435 160 435 c 0
EndSplineSet
Validated: 1
EndChar

StartChar: s
Encoding: 115 115 18
Width: 351
VWidth: 0
Flags: W
HStem: -10 28<121.065 220.313> 386 26<123.786 217.212>
VStem: 47 24<80.1372 122.955> 49 51<284.672 363.577> 256 59<51.3569 133.424> 256 31<307.013 353.516>
LayerCount: 3
Back
SplineSet
100 329 m 4xd4
 100 233 315 230 315 114 c 4
 315 71 286 28 236 5 c 4
 214 -5 188 -10 159 -10 c 4
 122 -10 92 -3 72 4 c 4
 50 12 47 18 47 30 c 4
 47 44 48 54 48 69 c 6
 47 110 l 6
 47 112 48 123 60 123 c 4
 66 123 69 116 71 111 c 4
 78 93 83 72 94 57 c 4
 111 34 135 18 176 18 c 4
 207 18 234 35 247 59 c 4
 253 70 256 80 256 90 c 4xe8
 256 115 237 135 212 152 c 4
 156 191 49 216 49 302 c 4
 49 353 92 412 179 412 c 4
 223 412 250 403 270 393 c 4
 286 385 287 376 287 364 c 6
 287 320 l 6
 287 309 280 307 271 307 c 4
 263 307 259 325 256 330 c 4
 238 365 211 386 168 386 c 4
 128 386 100 364 100 329 c 4xd4
EndSplineSet
Fore
SplineSet
100 329 m 0xd4
 100 233 315 230 315 114 c 0
 315 56 260 -10 161 -10 c 0
 123 -10 92 -3 72 4 c 0
 50 12 47 18 47 30 c 0
 47 44 48 54 48 69 c 2
 47 110 l 2
 47 112 48 123 60 123 c 0
 66 123 69 116 71 111 c 0
 89 51 115 18 176 18 c 0
 221 18 256 54 256 88 c 0xe8
 256 182 49 182 49 302 c 0
 49 353 92 412 179 412 c 0
 223 412 250 403 270 393 c 0
 286 385 287 376 287 364 c 2
 287 320 l 2
 287 309 280 307 271 307 c 0
 263 307 259 325 256 330 c 0
 238 365 211 386 168 386 c 0
 128 386 100 364 100 329 c 0xd4
EndSplineSet
Validated: 1
EndChar

StartChar: t
Encoding: 116 116 19
Width: 319
VWidth: 0
Flags: W
HStem: -18 47<176.109 271.764> 344 55<184.169 315.093> 345 45<171.004 295.739>
VStem: 91 73<38.7938 317.166> 103 64<99.4954 339.818>
LayerCount: 3
Back
SplineSet
166 467 m 0xa8
 176 467 180 461 180 452 c 0
 180 438 169 414 169 395 c 0
 169 390 170 390 173 390 c 0xa8
 182 390 284 399 296 399 c 0
 312 399 316 387 316 378 c 0
 316 349 306 344 282 344 c 0xc8
 274 344 220 345 180 345 c 0
 167 345 167 344 167 333 c 0xa8
 166 264 164 186 164 120 c 0
 164 58 174 29 220 29 c 0
 229 29 270 38 292 59 c 0
 296 63 301 65 305 65 c 0
 311 65 316 61 316 54 c 0
 316 16 242 -18 187 -18 c 0
 111 -18 91 32 91 96 c 0xb0
 91 170 103 281 103 319 c 0
 103 331 103 340 89 340 c 0
 82 340 66 339 58 339 c 0
 49 339 43 340 43 349 c 0
 43 358 48 364 58 369 c 0
 94 387 129 408 145 446 c 0
 149 455 154 467 166 467 c 0xa8
EndSplineSet
Fore
SplineSet
166 467 m 0xa8
 176 467 180 461 180 452 c 0
 180 441 172 420 170 406 c 0
 167 385 170 390 184 390 c 0xa8
 186 390 292 399 296 399 c 0
 312 399 316 387 316 378 c 0
 316 349 306 344 282 344 c 0xc8
 274 344 220 345 180 345 c 0
 167 345 167 344 167 333 c 0xa8
 166 264 164 186 164 120 c 0
 164 58 174 29 220 29 c 0
 229 29 270 38 292 59 c 0
 296 63 301 65 305 65 c 0
 311 65 316 61 316 54 c 0
 316 16 242 -18 187 -18 c 0
 111 -18 91 32 91 96 c 0xb0
 91 170 103 281 103 319 c 0
 103 331 103 340 89 340 c 0
 82 340 66 339 58 339 c 0
 49 339 43 340 43 349 c 0
 43 358 48 364 58 369 c 0
 94 387 129 408 145 446 c 0
 149 455 154 467 166 467 c 0xa8
EndSplineSet
Validated: 1
EndChar

StartChar: u
Encoding: 117 117 20
Width: 513
VWidth: 0
Flags: W
HStem: -15 21G<353 362> -4 46<182.869 292.986> 367 27<28.1629 86.9487 258.012 338.955>
VStem: 88 70<66.9685 349.716> 90 80<168.996 382> 348 69<67.5061 360.828>
LayerCount: 3
Back
SplineSet
423 341 m 4x74
 418 297 417 244 417 194 c 4
 417 144 418 99 418 71 c 4
 418 45 433 44 449 44 c 4
 461 44 471 46 483 47 c 4
 492 48 497 43 497 33 c 4
 497 14 462 16 396 -3 c 4
 386 -6 367 -15 357 -15 c 4xb4
 349 -15 348 -6 348 2 c 6
 348 49 l 5
 293 18 l 6
 272 6 238 -4 208 -4 c 4
 96 -4 88 70 88 154 c 4x74
 88 215 90 276 90 337 c 4
 90 367 70 367 49 367 c 4
 38 367 28 368 28 378 c 4
 28 392 37 394 51 394 c 4
 80 395 120 395 145 395 c 4
 167 395 170 388 170 376 c 4x6c
 170 365 158 244 158 178 c 4
 158 102 165 42 238 42 c 4
 273 42 348 67 348 92 c 6
 349 324 l 6
 349 394 258 344 258 380 c 4
 258 392 265 395 276 395 c 4
 288 395 345 394 356 394 c 4
 370 394 393 396 403 396 c 4
 416 396 424 394 424 376 c 4
 424 366 423 345 423 341 c 4x74
EndSplineSet
Fore
SplineSet
423 341 m 0x74
 418 297 417 244 417 194 c 0
 417 144 418 99 418 71 c 0
 418 45 433 44 449 44 c 0
 461 44 471 46 483 47 c 0
 492 48 497 43 497 33 c 0
 497 14 462 16 396 -3 c 0
 386 -6 367 -15 357 -15 c 0xb4
 349 -15 348 -6 348 2 c 2
 348 41 l 2
 348 48 346 47 340 44 c 0
 293 17 260 -4 208 -4 c 0
 96 -4 88 70 88 154 c 0x74
 88 215 90 276 90 337 c 0
 90 367 70 367 49 367 c 0
 38 367 28 368 28 378 c 0
 28 392 37 394 51 394 c 0
 80 395 120 395 145 395 c 0
 167 395 170 388 170 376 c 0x6c
 170 365 158 244 158 178 c 0
 158 102 165 42 238 42 c 0
 273 42 348 67 348 92 c 2
 349 324 l 2
 349 364 319 364 293 365 c 0
 274 366 258 365 258 380 c 0
 258 392 265 395 276 395 c 0
 288 395 345 394 356 394 c 0
 370 394 388 396 398 396 c 0
 411 396 424 394 424 376 c 0
 424 366 423 345 423 341 c 0x74
EndSplineSet
Validated: 1
EndChar

StartChar: v
Encoding: 118 118 21
Width: 511
VWidth: 0
Flags: W
HStem: -13 21G<252.5 261> 365 34<176.142 239.971 417.161 485.854>
LayerCount: 3
Back
SplineSet
256 -13 m 0
 249 -13 241 -3 234 14 c 0
 225 35 214 65 204 86 c 2
 102 310 l 2
 86 345 80 352 65 359 c 0
 46 368 22 372 22 386 c 0
 22 394 28 399 37 399 c 0
 59 399 87 397 127 397 c 0
 151 397 194 398 218 398 c 0
 230 398 240 393 240 381 c 0
 240 355 176 373 176 346 c 0
 176 328 225 212 276 99 c 1
 304 161 316 201 334 258 c 0
 345 292 357 328 357 343 c 0
 357 375 294 354 294 379 c 0
 294 396 312 399 330 399 c 0
 353 399 375 397 398 397 c 0
 422 397 449 400 472 400 c 0
 482 400 486 393 486 384 c 0
 486 361 447 370 427 357 c 0
 412 347 400 321 392 297 c 0
 360 208 318 108 283 24 c 0
 271 -6 266 -13 256 -13 c 0
EndSplineSet
Fore
SplineSet
240 381 m 0
 240 371 230 367 216 365 c 0
 198 362 176 362 176 346 c 0
 176 329 220 224 268 117 c 0
 276 100 275 97 283 115 c 0
 315 190 357 322 357 343 c 0
 357 375 294 354 294 379 c 0
 294 396 312 399 330 399 c 0
 353 399 375 397 398 397 c 0
 422 397 449 400 472 400 c 0
 482 400 486 393 486 384 c 0
 486 369 469 367 453 365 c 0
 422 361 411 350 392 297 c 0
 362 212 318 108 283 24 c 0
 271 -6 266 -13 256 -13 c 0
 249 -13 241 -3 234 14 c 0
 225 35 214 65 204 86 c 2
 102 310 l 2
 86 345 80 352 65 359 c 0
 46 368 22 372 22 386 c 0
 22 394 28 399 37 399 c 0
 59 399 87 397 127 397 c 0
 151 397 194 398 218 398 c 0
 230 398 240 393 240 381 c 0
EndSplineSet
Validated: 1
EndChar

StartChar: w
Encoding: 119 119 22
Width: 787
VWidth: 0
Flags: W
HStem: -10 21G<242.5 257 533 543> 368 29<177.094 246.344 306.283 364.47 456.552 523.662 584.196 648.249 701.503 771.697>
VStem: 306 150<335.5 391>
DStem2: 280 106 282 35 0.376377 0.926467<1.11291 211.292>
LayerCount: 3
Back
SplineSet
247 386 m 4xb0
 247 360 174 378 174 343 c 4
 174 318 221 202 272 89 c 5
 303 152 345 278 368 341 c 5
 366 348 363 351 361 353 c 4
 342 380 306 365 306 385 c 4
 306 397.25 316.71875 398.015625 324.087890625 398.015625 c 4
 357.210222462 398.015625 388.982115075 396 423 396 c 4
 451 396 481 397 505 397 c 4
 515 397 524 392 524 386 c 4
 524 354 456 382 456 349 c 4
 456 320 525 170 560 91 c 5
 589 156 606 201 624 258 c 4
 635 292 650 330 650 345 c 4
 650 377 584 364 584 384 c 4
 584 394 595 397 605 397 c 4
 631 397 656 395 683 395 c 4
 707 395 730 396 753 396 c 4
 763 396 772 394 772 385 c 4
 772 362 727 372 707 359 c 4xd0
 692 349 684 315 674 292 c 4
 636 200 606 112 565 27 c 4
 551 -2 548 -10 538 -10 c 4
 528 -10 523 -1 511 28 c 4
 482 102 417 232 392 306 c 5
 282 35 l 6
 267 -2 264 -13 250 -13 c 4
 235 -13 229 7 218 36 c 4
 212 51 202 73 197 86 c 6
 96 328 l 6
 81 363 76 369 62 374 c 4
 42 381 22 374 22 388 c 4
 22 396 28 403 37 403 c 4
 59 403 113 398 153 398 c 4
 177 398 200 399 224 399 c 4
 233 399 247 398 247 386 c 4xb0
EndSplineSet
Fore
SplineSet
247 386 m 0
 247 373 228 371 210 368 c 0
 192 365 174 360 174 343 c 0
 174 319 217 213 265 105 c 0
 272 88 272 90 280 106 c 0
 310 173 348 286 369 344 c 1
 364 362 346 368 330 371 c 0
 317 373 306 374 306 385 c 0
 306 397 317 398 324 398 c 0
 357 398 389 396 423 396 c 0
 451 396 481 397 505 397 c 0
 515 397 524 392 524 386 c 0
 524 368 505 369 487 368 c 0
 472 367 456 364 456 349 c 0
 456 322 515 191 552 109 c 0
 560 91 559 89 568 109 c 0
 597 175 650 324 650 346 c 0
 650 358 640 365 612 370 c 0
 597 373 584 375 584 384 c 0
 584 394 595 397 605 397 c 0
 631 397 656 395 683 395 c 0
 707 395 730 396 753 396 c 0
 763 396 772 394 772 385 c 0
 772 371 755 369 738 367 c 0
 693 363 697 348 674 292 c 0
 636 200 606 112 565 27 c 0
 551 -2 548 -10 538 -10 c 0
 528 -10 523 -1 511 28 c 0
 484 97 426 214 398 290 c 0
 392 307 389 298 386 291 c 2
 282 35 l 2
 267 -2 264 -13 250 -13 c 0
 235 -13 229 7 218 36 c 0
 212 51 202 73 197 86 c 2
 96 328 l 2
 81 363 76 369 62 374 c 0
 42 381 22 374 22 388 c 0
 22 396 28 403 37 403 c 0
 59 403 113 398 153 398 c 0
 177 398 200 399 224 399 c 0
 233 399 247 398 247 386 c 0
EndSplineSet
Validated: 1
EndChar

StartChar: x
Encoding: 120 120 23
Width: 527
VWidth: 0
Flags: W
HStem: 0 30<29.5977 112.485 421.716 479.489> 371 31<40.0095 109.999 417.226 487.327>
VStem: 228 70<182.188 223.812>
DStem2: 134 66 186 70 0.616198 0.787591<6.48322 138.48 236.108 362.187> 268 259 214 215 0.583795 -0.811901<-115.658 7.66203 78.7573 206.824>
LayerCount: 3
Back
SplineSet
214 215 m 6
 110 356 l 6
 107 360 91 371 73 371 c 4
 43 372 40 380 40 386 c 4
 40 397 44 402 56 402 c 4
 78 402 95 401 135 401 c 4
 159 401 202 402 226 402 c 4
 238 402 248 395 248 389 c 4
 248 367 207 379 207 358 c 4
 207 349 231 306 276 249 c 5
 304 280 319 304 337 332 c 4
 348 349 349 351 349 359 c 4
 349 375 311 368 311 392 c 4
 311 400 318 404 336 404 c 4
 359 404 380 402 403 402 c 4
 427 402 443 404 466 404 c 4
 476 404 488 404 488 391 c 4
 488 369 458 372 438 366 c 4
 423 361 417 356 406 347 c 4
 374 320 344 283 310 240 c 4
 301 229 298 222 298 216 c 4
 298 207 305 200 312 191 c 6
 418 50 l 6
 432 30 437 33 452 29 c 4
 471 25 480 28 480 9 c 4
 480 -2 465 -4 456 -4 c 4
 434 -4 406 0 366 0 c 6
 302 0 l 6
 290 0 280 2 280 12 c 4
 280 43 324 16 324 44 c 4
 324 55 272 132 253 156 c 5
 225 125 204 98 186 70 c 4
 175 53 176 49 176 41 c 4
 176 18 228 40 228 11 c 4
 228 0 208 -1 190 -1 c 4
 167 -1 145 0 122 0 c 4
 98 0 71 -2 48 -2 c 4
 38 -2 29 5 29 9 c 4
 29 30 42 29 62 30 c 4
 70 30 88 32 94 34 c 4
 109 39 124 55 134 66 c 4
 177 114 185 123 218 166 c 4
 224 173 228 179 228 186 c 4
 228 193 224 201 214 215 c 6
EndSplineSet
Fore
SplineSet
214 215 m 2
 110 356 l 2
 107 360 91 371 73 371 c 0
 43 372 40 380 40 386 c 0
 40 397 44 402 56 402 c 0
 78 402 95 401 135 401 c 0
 159 401 202 402 226 402 c 0
 238 402 248 395 248 389 c 0
 248 367 207 379 207 358 c 0
 207 350 228 311 268 259 c 0
 276 249 277 248 285 259 c 0
 339 328 349 351 349 358 c 0
 349 375 311 368 311 392 c 0
 311 400 318 404 336 404 c 0
 359 404 380 402 403 402 c 0
 427 402 443 404 466 404 c 0
 476 404 488 404 488 391 c 0
 488 377 474 373 459 370 c 0
 429 365 428 365 406 347 c 0
 374 320 344 283 310 240 c 0
 301 229 298 222 298 216 c 0
 298 207 305 200 312 191 c 2
 418 50 l 2
 432 30 437 33 452 29 c 0
 471 25 480 28 480 9 c 0
 480 -2 465 -4 456 -4 c 0
 434 -4 406 0 366 0 c 2
 302 0 l 2
 290 0 280 2 280 12 c 0
 280 43 324 16 324 44 c 0
 324 54 284 114 261 146 c 0
 253 158 253 156 243 145 c 0
 220 118 202 95 186 70 c 0
 175 53 176 49 176 41 c 0
 176 18 228 40 228 11 c 0
 228 0 208 -1 190 -1 c 0
 167 -1 145 0 122 0 c 0
 98 0 71 -2 48 -2 c 0
 38 -2 29 5 29 9 c 0
 29 29 42 30 62 30 c 0
 100 30 112 41 134 66 c 0
 177 114 185 123 218 166 c 0
 224 173 228 179 228 186 c 0
 228 193 224 201 214 215 c 2
EndSplineSet
Validated: 1
EndChar

StartChar: y
Encoding: 121 121 24
Width: 534
VWidth: 0
Flags: W
HStem: -242 73<56.603 141.336> 373 26<31.4863 94.7798 432.765 504.478>
LayerCount: 3
Back
SplineSet
242 386 m 4
 242 363 186 387 186 352 c 4
 186 330 231 209 277 106 c 5
 303 160 380 343 380 359 c 4
 380 384 312 365 312 388 c 4
 312 400 325 403 332 403 c 4
 346 403 396 399 412 399 c 4
 440 399 462 402 486 402 c 4
 496 402 505 398 505 392 c 4
 505 379 499 373 489 373 c 4
 446 373 427 368 408 324 c 4
 336 160 283 24 196 -137 c 4
 174 -177 146 -242 93 -242 c 4
 66 -242 52 -221 52 -202 c 4
 52 -185 64 -169 87 -169 c 4
 107 -169 112 -173 124 -173 c 4
 138 -173 142 -167 148 -158 c 4
 186 -98 230 -2 230 4 c 4
 230 7 205 73 198 92 c 6
 111 330 l 6
 98 366 86 371 62 373 c 4
 43 375 31 376 31 390 c 4
 31 398 42 399 49 399 c 4
 71 399 113 398 153 398 c 4
 177 398 200 400 224 400 c 4
 233 400 242 398 242 386 c 4
EndSplineSet
Fore
SplineSet
242 386 m 0
 242 363 186 387 186 352 c 0
 186 331 226 223 269 125 c 0
 274 113 277 106 286 125 c 0
 317 194 380 345 380 359 c 0
 380 384 312 365 312 388 c 0
 312 400 325 403 332 403 c 0
 346 403 396 399 412 399 c 0
 440 399 462 402 486 402 c 0
 496 402 505 398 505 392 c 0
 505 379 499 373 489 373 c 0
 446 373 427 368 408 324 c 0
 336 160 283 24 196 -137 c 0
 174 -177 146 -242 93 -242 c 0
 66 -242 52 -221 52 -202 c 0
 52 -185 64 -169 87 -169 c 0
 107 -169 112 -173 124 -173 c 0
 138 -173 142 -167 148 -158 c 0
 186 -98 230 -2 230 4 c 0
 230 7 205 73 198 92 c 2
 111 330 l 2
 98 366 86 371 62 373 c 0
 43 375 31 376 31 390 c 0
 31 398 42 399 49 399 c 0
 71 399 113 398 153 398 c 0
 177 398 200 400 224 400 c 0
 233 400 242 398 242 386 c 0
EndSplineSet
Validated: 1
EndChar

StartChar: z
Encoding: 122 122 25
Width: 421
VWidth: 0
Flags: W
HStem: 0 45<162.5 320.828> 0 37<147.377 267.5> 365 37<112.794 265> 369 42<189.111 265>
VStem: 80 32<403.629 463.696> 353 25<116.039 145.817>
DStem2: 39 27 141 49 0.561624 0.827393<75.7979 398.843>
LayerCount: 3
Back
SplineSet
360 0 m 6x4c
 78 0 l 6
 47 0 35 6 35 16 c 4
 35 19 36 23 39 27 c 6
 271 369 l 5x5c
 171 365 l 6
 103 362 90 353 70 302 c 4
 67 295 59 292 54 292 c 4
 42 292 39 299 39 308 c 4
 39 329 61 382 64 394 c 4
 68 409 75 426 80 443 c 4
 84 456 92 464 98 464 c 4
 109 464 112 460 112 449 c 6
 112 417 l 6
 112 409 118 402 140 402 c 6x2c
 361 411 l 6
 376 411 381 405 381 398 c 4
 381 389 373 375 366 367 c 4
 335 328 132 36 132 36 c 5x5c
 285 45 l 6x8c
 317 47 319 61 332 95 c 4
 339 112 346 131 353 142 c 4
 355 145 361 146 364 146 c 4
 370 146 378 139 378 127 c 4
 378 105 372 73 372 65 c 6
 372 24 l 6
 372 4 368 0 360 0 c 6x4c
EndSplineSet
Fore
SplineSet
360 0 m 2x4c
 78 0 l 2
 47 0 35 6 35 16 c 0
 35 19 36 23 39 27 c 2
 263 357 l 2
 269 366 269 369 265 369 c 2x5c
 171 365 l 2
 103 362 90 353 70 302 c 0
 67 295 59 292 54 292 c 0
 42 292 39 299 39 308 c 0
 39 332 69 403 80 443 c 0
 84 456 92 464 98 464 c 0
 109 464 112 460 112 449 c 2
 112 417 l 2
 112 409 118 402 140 402 c 2x2c
 361 411 l 2
 376 411 381 405 381 398 c 0
 381 389 373 375 366 367 c 0
 339 333 181 106 141 49 c 0
 135 40 137 37 145 37 c 2x5c
 285 45 l 2x8c
 317 47 319 61 332 95 c 0
 339 112 346 131 353 142 c 0
 355 145 361 146 364 146 c 0
 370 146 378 139 378 127 c 0
 378 105 372 73 372 65 c 2
 372 24 l 2
 372 4 368 0 360 0 c 2x4c
EndSplineSet
Validated: 1
EndChar

StartChar: H
Encoding: 72 72 33
Width: 765
VWidth: 0
Flags: W
HStem: -3 32<35.0066 105.548 216.115 301.934 446.321 538.07> 303 50<208.068 548.093> 615 37<46.3056 122.172 215.479 303.58 471.436 551.736 638.091 708.852>
VStem: 118 89<38.7316 302.931 353.016 577.157> 125 89<377.83 613.237> 550 87<43.6152 302.896 353.199 616.406>
LayerCount: 3
Fore
SplineSet
207 65 m 0xf4
 207 38 234 36 259 34 c 0
 281 32 302 31 302 15 c 0
 302 -1 292 -5 274 -5 c 0
 267 -5 219 0 168 0 c 0
 116 0 88 -3 62 -3 c 0
 44 -3 35 3 35 13 c 0
 35 19 41 28 52 29 c 0
 76 31 118 34 118 76 c 0xf4
 118 105 125 546 125 579 c 0
 125 608 109 615 88 615 c 2
 66 615 l 2
 54 615 46 617 46 630 c 0
 46 647 63 652 85 652 c 0
 107 652 122 651 172 651 c 0
 232 651 257 655 272 655 c 0
 280 655 304 653 304 638 c 0
 304 619 288 617 270 617 c 2
 257 617 l 2
 234 617 216 616 214 588 c 0xec
 208 519 207 456 207 374 c 0
 207 354 210 353 232 353 c 2
 519 353 l 2
 547 353 548 356 549 392 c 0
 551 487 552 579 552 592 c 0
 552 618 529 616 507 619 c 0
 487 622 470 626 470 639 c 0
 470 654 483 655 505 655 c 0
 529 655 565 652 594 652 c 0
 607 652 650 653 673 653 c 0
 692 653 709 649 709 636 c 0
 709 622 701 621 681 619 c 0
 656 616 637 623 637 582 c 2
 637 506 l 2
 637 362 634 149 634 73 c 0
 634 24 737 44 737 13 c 0
 737 0 726 -2 708 -2 c 0
 701 -2 649 0 598 0 c 0
 546 0 489 -6 463 -6 c 0
 452 -6 446 1 446 10 c 0
 446 32 474 27 501 30 c 0
 524 32 546 39 547 73 c 0
 548 81 550 186 550 271 c 0
 550 302 550 303 518 303 c 2
 237 303 l 2
 209 303 208 302 208 275 c 0
 208 190 207 101 207 65 c 0xf4
EndSplineSet
Validated: 1
EndChar

StartChar: I
Encoding: 73 73 34
Width: 327
VWidth: 0
Flags: W
HStem: -6 25G<27.5 46 268.5 281>
VStem: 117 89<42.8999 325> 126 84<336.108 610.575>
LayerCount: 3
Fore
SplineSet
206 69 m 0xc0
 206 19 314 47 314 14 c 0
 314 -2 290 -2 272 -2 c 0
 265 -2 219 0 168 0 c 0
 116 0 59 -6 33 -6 c 0
 22 -6 16 1 16 10 c 0
 16 54 117 -4 117 74 c 0xc0
 117 103 126 546 126 579 c 0
 126 647 21 601 21 639 c 0
 21 656 31 659 53 659 c 0
 75 659 122 654 172 654 c 0
 182 654 257 656 272 656 c 0
 295 656 312 653 312 638 c 0
 312 604 258 630 228 609 c 0
 212 597 210 563 210 516 c 0xa0
 209 386 206 142 206 69 c 0xc0
EndSplineSet
Validated: 1
EndChar

StartChar: J
Encoding: 74 74 35
Width: 327
VWidth: 0
Flags: W
HStem: -242 38<-15.9164 74.2049> 616 48<210.686 293.996>
VStem: -100 80<-199.28 -140.406> 117 93<327.768 611.401> 125 91<-95.4663 346.105>
LayerCount: 3
Fore
SplineSet
-29 -64 m 0xe8
 -3 -64 17 -83 17 -112 c 0
 17 -142 -20 -144 -20 -170 c 0
 -20 -190 -3 -204 25 -204 c 0
 107 -204 123 -94 124 -20 c 0
 125 16 125 56 125 96 c 0xe8
 125 300 118 538 117 581 c 0
 116 645 4 593 4 636 c 0
 4 648 15 659 37 659 c 0
 59 659 100 660 150 660 c 0
 160 660 257 664 272 664 c 0
 286 664 296 657 296 648 c 0
 296 614 251 634 222 616 c 0
 212 610 210 606 210 571 c 0xf0
 210 427 216 188 216 60 c 0
 216 -56 191 -129 153 -176 c 0
 116 -223 60 -242 16 -242 c 0
 -48 -242 -100 -202 -100 -145 c 0
 -100 -104 -73 -64 -29 -64 c 0xe8
EndSplineSet
Validated: 1
EndChar

StartChar: L
Encoding: 76 76 37
Width: 583
VWidth: 0
Flags: W
HStem: 0 43<213.396 443.274> 620 31<19.562 123.675> 629 31<228.177 333.586>
VStem: 126 83<47.3108 616.735>
LayerCount: 3
Fore
SplineSet
213 70 m 0xb0
 213 61 216 43 234 43 c 0
 271 43 425 47 467 61 c 0
 532 82 541 175 559 175 c 0
 568 175 572 164 572 149 c 0
 572 133 569 112 567 92 c 0
 564 57 564 25 564 22 c 0
 564 6 548 -2 530 -2 c 0
 523 -2 219 0 168 0 c 0
 116 0 52 -5 26 -5 c 0
 15 -5 4 0 4 10 c 0
 4 42 120 18 120 74 c 0
 120 103 126 546 126 579 c 0
 126 618 124 617 63 620 c 0
 41 621 19 624 19 639 c 0
 19 652 26 653 31 653 c 0
 56 653 57 651 138 651 c 0xd0
 244 651 280 660 311 660 c 0
 322 660 334 659 334 650 c 0
 334 632 326 631 306 629 c 0
 225 620 210 633 210 531 c 0
 210 480 209 424 209 358 c 0
 209 241 210 117 213 70 c 0xb0
EndSplineSet
Validated: 1
EndChar

StartChar: N
Encoding: 78 78 39
Width: 758
VWidth: 0
Flags: W
HStem: -3 37<16.0139 112.222 163.467 276.849> 619 40<7.09814 101.58> 630 34<461.084 572.923 637.566 717.951>
VStem: 107 41<348.284 506.991> 116 45<38.2014 265.977> 579 49<359.8 620.713> 592 41<131.008 383.023>
DStem2: 171 628 176 482 0.644871 -0.764291<79.7102 647.831>
LayerCount: 3
Fore
SplineSet
171 628 m 2xd0
 485 253 l 2
 514 219 580 131 587 131 c 0
 592 131 592 142 592 179 c 0xd2
 592 215 585 473 579 574 c 0
 577 605 581 615 556 624 c 0
 546 628 532 629 518 630 c 0
 490 632 461 633 461 648 c 0
 461 658 464 667 485 667 c 0
 506 667 504 664 591 664 c 0
 642 664 669 666 692 666 c 0
 701 666 718 664 718 648 c 0
 718 632 702 631 683 630 c 0
 666 629 649 631 637 621 c 0
 630 615 629 601 629 573 c 0
 629 546 628 454 628 427 c 0xa4
 628 266 633 153 633 -3 c 0
 633 -27 624 -27 620 -27 c 0
 600 -27 603 -24 500 98 c 2
 176 482 l 2
 163 497 155 507 151 507 c 0
 148 507 148 494 148 482 c 0xb2
 148 378 158 129 161 62 c 0
 162 34 200 35 221 34 c 0
 256 32 277 33 277 13 c 0
 277 -2 264 -3 245 -3 c 0
 219 -3 179 0 140 0 c 0
 108 0 58 -2 36 -2 c 0
 27 -2 16 0 16 15 c 0
 16 33 35 33 56 33 c 0
 112 33 116 44 116 85 c 0xa8
 116 217 109 457 107 548 c 0
 106 610 102 611 61 619 c 0
 41 623 7 620 7 640 c 0
 7 657 16 659 26 659 c 2
 64 659 l 2
 82 659 101 661 119 661 c 0
 142 661 149 655 171 628 c 2xd0
EndSplineSet
Validated: 1
EndChar

StartChar: O
Encoding: 79 79 40
Width: 786
VWidth: 0
Flags: W
HStem: -19 40<307.376 481.249> 622 44<274.636 459.692>
VStem: 36 106<202.247 450.859> 621 107<188.728 433.798>
LayerCount: 3
Fore
SplineSet
728 322 m 0
 728 94 570 -19 374 -19 c 0
 194 -19 36 86 36 326 c 0
 36 548 204 666 380 666 c 0
 576 666 728 542 728 322 c 0
367 622 m 0
 217.726469659 622 142 481.448263612 142 333 c 0
 142 132 270 21 392 21 c 0
 523 21 621 126 621 298 c 0
 621 496 506 622 367 622 c 0
EndSplineSet
Validated: 524289
EndChar

StartChar: P
Encoding: 80 80 41
Width: 557
VWidth: 0
Flags: W
HStem: -6 39<23.0049 111.878 215.082 323.975> 264 49<244.303 379.422> 618 41<215.686 355.971>
VStem: 113 99<41.3421 302.993 320.308 325> 124 86<348.51 614.836> 437 93<380.09 541.97>
LayerCount: 3
Fore
SplineSet
214 558 m 0xec
 213 540 210 442 210 375 c 0
 210 341 212 330 223 324 c 0
 239 316 279 313 298 313 c 0
 387 313 437 367 437 463 c 0
 437 554 370 618 268 618 c 0
 208 618 216 612 214 558 c 0xec
212 277 m 2xf4
 212 66 l 2
 212 40 235 41 260 37 c 0
 290 33 324 32 324 14 c 0
 324 -2 317 -7 299 -7 c 0
 292 -7 219 0 168 0 c 0
 116 0 69 -6 43 -6 c 0
 29 -6 22 -3 22 6 c 0
 22 33 50 29 78 33 c 0
 97 35 113 41 113 60 c 0xf4
 113 89 124 560 124 593 c 0xec
 124 636 26 602 26 640 c 0
 26 657 38 661 53 661 c 0
 75 661 122 656 172 656 c 0
 233 656 265 659 327 659 c 0
 402 659 530 638 530 484 c 0
 530 387 476 264 330 264 c 0
 264 264 217 303 216 303 c 0
 214 303 212 293 212 277 c 2xf4
EndSplineSet
Validated: 1
EndChar

StartChar: Q
Encoding: 81 81 42
Width: 767
VWidth: 0
Flags: W
HStem: -245 58<647.481 753.002> 622 41<279.119 463.164>
VStem: 42 93<201.561 441.843> 628 94<187.703 434.767>
LayerCount: 3
Fore
SplineSet
367 622 m 0
 218 622 135 483 135 335 c 0
 135 134 262 12 384 12 c 0
 515 12 628 124 628 296 c 0
 628 494 519 622 367 622 c 0
380 663 m 0
 579 663 722 534 722 321 c 0
 722 -8 415 -5 415 -14 c 0
 415 -20 628 -187 721 -187 c 0
 767 -187 774 -175 784 -175 c 0
 793 -175 797 -190 797 -194 c 0
 797 -202 784 -210 774 -214 c 0
 744 -227 706 -245 668 -245 c 0
 528 -245 454 -130 314 -30 c 0
 302 -22 292 -11 276 -6 c 0
 142 33 42 146 42 310 c 0
 42 530 193 663 380 663 c 0
EndSplineSet
Validated: 1
EndChar

StartChar: R
Encoding: 82 82 43
Width: 679
VWidth: 0
Flags: W
HStem: 0 31<19.4814 110.113 555.26 654.083> 322 25<209.393 278.117> 618 36<34.4535 122.307 210.176 314.935>
VStem: 113 95<40.0172 317.957> 125 83<317.957 322 347.231 615.197> 398 92<408.098 551.5>
LayerCount: 3
Fore
SplineSet
208 292 m 2xf4
 208 66 l 2
 208 40 228 40 258 34 c 0
 288 28 316 24 316 11 c 0
 316 -5 308 -7 296 -7 c 0
 289 -7 219 0 168 0 c 0
 116 0 64 -6 38 -6 c 0
 24 -6 17 -3 17 6 c 0
 17 33 60 27 88 31 c 0
 107 33 110 41 113 60 c 0xf4
 116 85 125 447 125 561 c 0xec
 125 578 124 589 124 593 c 0
 122 615 99 618 76 618 c 2
 63 618 l 2
 47 618 34 619 34 632 c 0
 34 648 50 650 66 652 c 0
 75 653 86 654 98 654 c 2
 164 654 l 2
 189 654 217 656 246 656 c 0
 371 656 490 626 490 496 c 0
 490 413 450 368 387 344 c 0
 366 336 356 334 356 328 c 0
 356 324 361 318 370 306 c 0
 422 243 464 164 507 92 c 0
 536 45 553 44 628 29 c 0
 648 25 655 22 655 9 c 0
 655 -2 645 -3 631 -3 c 0
 585 -3 539 -2 493 -2 c 0
 444 -2 438 21 427 41 c 2
 292 289 l 2
 284 303 275 322 252 322 c 2
 229 322 l 2
 211 322 208 315 208 292 c 2xf4
209 590 m 0
 209 572 207 442 207 375 c 0
 207 350 207 347 242 347 c 0
 331 347 398 383 398 479 c 0
 398 568 328 616 230 616 c 0
 211 616 209 598 209 590 c 0
EndSplineSet
Validated: 1
EndChar

StartChar: S
Encoding: 83 83 44
Width: 452
VWidth: 0
Flags: WO
HStem: -21 45<135.443 311.774> 626 45<145.83 283.576>
VStem: 30 31<102.875 189.985> 39 59<459.981 577.648> 330 37<498.163 576.219> 367 55<79.0672 202.615>
LayerCount: 3
Back
SplineSet
98 516 m 4xd8
 98 455 153 431 222 393 c 4
 311 344 422 301 422 174 c 4
 422 78 364 -21 216 -21 c 4
 159 -21 89 -9 59 3 c 4
 34 13 28 15 28 25 c 4
 28 51 30 74 30 96 c 6
 30 160 l 6
 30 172 34 190 46 190 c 4
 55 190 60 185 61 176 c 4xe4
 64 133 68 110 89 83 c 4
 118 46 172 24 232 24 c 4
 325 24 367 86 367 142 c 4
 367 297 39 269 39 500 c 4
 39 584 114 671 229 671 c 4
 278 671 320 661 356 646 c 4
 365 642 367 633 367 625 c 4xd4
 367 614 366 605 366 593 c 4
 366 568 367 539 367 522 c 4
 367 504 364 498 350 498 c 4
 338 498 333 519 330 533 c 4
 314 601 262 626 213 626 c 4
 157 626 98 586 98 516 c 4xd8
EndSplineSet
Fore
SplineSet
98 514 m 0xd8
 98 381 422 385 422 174 c 0
 422 78 364 -21 216 -21 c 0
 159 -21 89 -9 59 3 c 0
 34 13 28 15 28 25 c 0
 28 51 30 74 30 96 c 2
 30 160 l 2
 30 172 34 190 46 190 c 0
 55 190 60 185 61 176 c 0xe4
 64 133 68 110 89 83 c 0
 118 46 172 24 232 24 c 0
 325 24 367 86 367 142 c 0
 367 297 39 269 39 500 c 0
 39 584 114 671 229 671 c 0
 278 671 320 661 356 646 c 0
 365 642 367 633 367 625 c 0xd4
 367 614 366 605 366 593 c 0
 366 568 367 539 367 522 c 0
 367 504 364 498 350 498 c 0
 338 498 333 519 330 533 c 0
 314 601 262 626 213 626 c 0
 157 626 98 585 98 514 c 0xd8
EndSplineSet
Validated: 1
EndChar

StartChar: T
Encoding: 84 84 45
Width: 633
VWidth: 0
Flags: W
HStem: -6 42<172.811 264.984 359.345 482.529> 604 52<93.8424 277.858 362.782 546.991>
VStem: 19 39<501.347 564.87> 270 88<42.8855 330.865> 278 83<287.283 603.09>
LayerCount: 3
Fore
SplineSet
358 69 m 0xf0
 358 41 370 44 406 40 c 0
 414 39 435 38 452 36 c 0
 473 34 483 31 483 19 c 0
 483 3 467 -2 449 -2 c 0
 442 -2 371 0 320 0 c 0
 268 0 211 -6 185 -6 c 0
 174 -6 172 1 172 10 c 0
 172 30 204 31 228 36 c 0
 251 41 266 40 270 78 c 0xf0
 274 121 278 397 278 529 c 2
 278 570 l 2
 278 588 278 604 267 604 c 2
 225 604 l 2
 186 604 137 601 107 590 c 0
 84 581 68 555 58 534 c 0
 49 516 44 500 34 500 c 0
 19 500 19 509 19 516 c 0
 19 549 31 587 45 640 c 0
 47 647 53 686 71 686 c 0
 92 686 96 658 109 658 c 0
 210 658 287 656 365 656 c 0
 498 656 484 653 552 653 c 0
 578 653 567 686 590 686 c 0
 607 686 609 663 609 637 c 0
 609 627 608 614 608 606 c 0
 608 577 614 539 614 527 c 0
 614 520 612 504 600 504 c 0
 570 504 582 562 547 583 c 0
 516 602 436 604 409 604 c 2
 393 604 l 2
 365 604 361 590 361 558 c 0xe8
 361 546 362 420 362 404 c 0
 361 274 358 142 358 69 c 0xf0
EndSplineSet
Validated: 1
EndChar

StartChar: comma
Encoding: 44 44 53
Width: 306
VWidth: 0
Flags: W
HStem: -174 28<102.887 141.635> -9 80<113.625 185.535>
VStem: 190 54<-99.9459 -13.964>
LayerCount: 3
Fore
SplineSet
142 -9 m 0
 117 -9 104 3 104 22 c 0
 104 51 131 71 162 71 c 0
 205 71 244 30 244 -28 c 0
 244 -114 159 -174 112 -174 c 0
 106 -174 102 -170 102 -164 c 0
 102 -154 115 -151 124 -146 c 0
 157 -128 190 -87 190 -48 c 0
 190 -22 175 -9 142 -9 c 0
EndSplineSet
Validated: 1
EndChar

StartChar: period
Encoding: 46 46 54
Width: 298
VWidth: 0
Flags: W
HStem: -17 92<114.347 191.653>
VStem: 107 92<-9.65255 67.6526>
LayerCount: 3
Fore
SplineSet
107 29 m 0
 107 54 128 75 153 75 c 0
 178 75 199 54 199 29 c 0
 199 4 178 -17 153 -17 c 0
 128 -17 107 4 107 29 c 0
EndSplineSet
Validated: 1
EndChar
